<?xml version="1.0" encoding="UTF-8" standalone="no"?>
<!-- Created with Inkscape (http://www.inkscape.org/) -->

<svg
   xmlns:dc="http://purl.org/dc/elements/1.1/"
   xmlns:cc="http://creativecommons.org/ns#"
   xmlns:rdf="http://www.w3.org/1999/02/22-rdf-syntax-ns#"
   xmlns:svg="http://www.w3.org/2000/svg"
   xmlns="http://www.w3.org/2000/svg"
   xmlns:sodipodi="http://sodipodi.sourceforge.net/DTD/sodipodi-0.dtd"
   xmlns:inkscape="http://www.inkscape.org/namespaces/inkscape"
   width="200mm"
   height="200mm"
   viewBox="0 0 200 200"
   version="1.1"
   id="svg2935"
   inkscape:version="0.92.3 (2405546, 2018-03-11)"
   sodipodi:docname="Age.svg">
  <defs
     id="defs2929" />
  <sodipodi:namedview
     id="base"
     pagecolor="#ffffff"
     bordercolor="#666666"
     borderopacity="1.0"
     inkscape:pageopacity="0.0"
     inkscape:pageshadow="2"
     inkscape:zoom="0.35"
     inkscape:cx="-367.14286"
     inkscape:cy="560"
     inkscape:document-units="mm"
     inkscape:current-layer="layer1"
     showgrid="false"
     inkscape:window-width="1920"
     inkscape:window-height="1001"
     inkscape:window-x="-9"
     inkscape:window-y="-9"
     inkscape:window-maximized="1" />
  <metadata
     id="metadata2932">
    <rdf:RDF>
      <cc:Work
         rdf:about="">
        <dc:format>image/svg+xml</dc:format>
        <dc:type
           rdf:resource="http://purl.org/dc/dcmitype/StillImage" />
        <dc:title></dc:title>
      </cc:Work>
    </rdf:RDF>
  </metadata>
  <g
     inkscape:label="Ebene 1"
     inkscape:groupmode="layer"
     id="layer1"
     transform="translate(0,-97)">
    <path
       style="fill:#000000;stroke-width:0.30928966"
       d="M 91.000082,284.89363 C 37.81655,280.08102 1.5253941,229.36281 14.305788,177.71055 c 8.53608,-34.49876 37.381178,-60.26409 72.714095,-64.95047 10.519438,-1.39524 23.379937,-0.63955 32.540517,1.91211 l 1.62377,0.4523 v 7.86494 c 0,4.32572 -0.0451,7.86494 -0.10014,7.86494 -0.0551,0 -1.22379,-0.33632 -2.59713,-0.74738 -12.70998,-3.80427 -28.18112,-3.74258 -40.868857,0.16295 -36.546078,11.24959 -57.640409,48.41883 -48.570406,85.58343 9.53573,39.07294 50.425671,62.56194 89.209463,51.2459 34.0675,-9.93996 55.72678,-43.65271 50.67162,-78.87057 -0.42541,-2.96372 -2.13669,-10.41849 -2.75146,-11.98607 -0.1988,-0.5069 0.28963,-0.54126 7.69579,-0.54126 h 7.90805 l 0.3426,1.27233 c 0.76831,2.85325 1.53542,6.82135 1.99624,10.32604 6.15471,46.80832 -26.53567,89.96715 -73.45162,96.97305 -4.72614,0.70575 -15.10834,1.03347 -19.668238,0.62084 z m 27.580948,-58.7907 C 105.54553,224.05674 99.537541,215.23 99.537541,198.12487 c 0,-15.83818 4.979509,-24.55222 15.924769,-27.86802 3.55714,-1.07761 11.75797,-1.25395 15.4445,-0.3321 4.53814,1.13481 8.10718,3.59186 10.29947,7.0905 1.27943,2.04181 2.77023,5.3794 2.51626,5.63337 -0.0828,0.0827 -3.06523,0.50239 -6.62774,0.93254 -3.56252,0.43015 -6.92291,0.85633 -7.46754,0.94706 -0.94748,0.15785 -1.00549,0.1077 -1.34278,-1.16072 -0.84801,-3.189 -2.83424,-4.74712 -5.74387,-4.50583 -2.93741,0.24359 -5.06893,2.26377 -6.11884,5.79922 -0.50511,1.70087 -1.5351,8.48951 -1.36534,8.99881 0.0536,0.16093 0.84835,-0.3233 1.76602,-1.07607 2.33324,-1.91394 4.30833,-2.91973 6.74932,-3.43697 11.42364,-2.42067 21.41696,6.02598 21.41696,18.10226 0,9.01303 -5.31898,16.04088 -13.84331,18.29079 -2.74295,0.72398 -9.58604,1.03074 -12.56439,0.56322 z m 8.36485,-10.37142 c 2.46821,-1.52598 3.36236,-3.65264 3.36224,-7.99679 -9e-5,-2.94208 -0.10354,-3.65293 -0.73496,-5.05007 -2.58579,-5.72158 -10.1798,-5.88033 -13.09797,-0.27381 -0.94246,1.81068 -1.15019,6.58307 -0.38663,8.88195 1.59997,4.81704 6.80413,6.94462 10.85732,4.43872 z m -59.8874,-8.63023 v -18.39574 l -3.077432,2.01637 c -3.407179,2.23241 -6.226354,3.61262 -10.3056,5.04542 l -2.712542,0.95276 0.08358,-6.36624 0.08358,-6.36625 2.319673,-0.84862 c 6.984744,-2.55526 12.269635,-6.65739 15.27328,-11.85509 l 1.200604,-2.0776 h 6.29967 6.299674 v 28.14536 28.14537 H 74.790721 67.05848 Z m 82.58034,-51.65838 v -8.19618 h -8.19618 -8.19617 v -6.03114 -6.03115 h 8.19617 8.19618 v -8.19618 -8.19618 h 6.03115 6.03115 v 8.19618 8.19618 h 8.19617 8.19618 v 6.03115 6.03114 h -8.19618 -8.19617 v 8.19618 8.19618 h -6.03115 -6.03115 z"
       id="path3491"
       inkscape:connector-curvature="0" />
  </g>
</svg>
