<?xml version="1.0" encoding="UTF-8" standalone="no"?>
<!-- Created with Inkscape (http://www.inkscape.org/) -->

<svg
   xmlns:dc="http://purl.org/dc/elements/1.1/"
   xmlns:cc="http://creativecommons.org/ns#"
   xmlns:rdf="http://www.w3.org/1999/02/22-rdf-syntax-ns#"
   xmlns:svg="http://www.w3.org/2000/svg"
   xmlns="http://www.w3.org/2000/svg"
   xmlns:sodipodi="http://sodipodi.sourceforge.net/DTD/sodipodi-0.dtd"
   xmlns:inkscape="http://www.inkscape.org/namespaces/inkscape"
   width="200mm"
   height="200mm"
   viewBox="0 0 200 200"
   version="1.1"
   id="svg8"
   inkscape:version="0.92.3 (2405546, 2018-03-11)"
   sodipodi:docname="man_height.svg"
   inkscape:export-filename="D:\CloudStation\CloudStation\twinster\SHOW MY SIZE\Pics\SVG\woman_height.png"
   inkscape:export-xdpi="96"
   inkscape:export-ydpi="96">
  <defs
     id="defs2" />
  <sodipodi:namedview
     id="base"
     pagecolor="#ffffff"
     bordercolor="#666666"
     borderopacity="1.0"
     inkscape:pageopacity="0.0"
     inkscape:pageshadow="2"
     inkscape:zoom="0.49497475"
     inkscape:cx="-553.82975"
     inkscape:cy="402.72296"
     inkscape:document-units="mm"
     inkscape:current-layer="layer1"
     showgrid="false"
     inkscape:window-width="1920"
     inkscape:window-height="1001"
     inkscape:window-x="-9"
     inkscape:window-y="-9"
     inkscape:window-maximized="1"
     showguides="false" />
  <metadata
     id="metadata5">
    <rdf:RDF>
      <cc:Work
         rdf:about="">
        <dc:format>image/svg+xml</dc:format>
        <dc:type
           rdf:resource="http://purl.org/dc/dcmitype/StillImage" />
        <dc:title></dc:title>
      </cc:Work>
    </rdf:RDF>
  </metadata>
  <g
     inkscape:label="Ebene 1"
     inkscape:groupmode="layer"
     id="layer1"
     transform="translate(0,-97)">
    <path
       style="fill:none;stroke:#666666;stroke-width:1.24576998;stroke-linecap:butt;stroke-linejoin:miter;stroke-miterlimit:4;stroke-dasharray:9.9661602, 1.24577002;stroke-dashoffset:0;stroke-opacity:1"
       d="m 95.782388,281.3361 38.419622,-0.0206"
       id="path932-1-3-6-7"
       inkscape:connector-curvature="0"
       sodipodi:nodetypes="cc" />
    <path
       style="fill:none;stroke:#666666;stroke-width:1;stroke-linecap:butt;stroke-linejoin:miter;stroke-miterlimit:4;stroke-dasharray:8, 1;stroke-dashoffset:0;stroke-opacity:1"
       d="m 133.94688,109.38647 0.12627,171.81215"
       id="path1071"
       inkscape:connector-curvature="0" />
    <path
       style="fill:none;stroke:#666666;stroke-width:1;stroke-linecap:butt;stroke-linejoin:miter;stroke-miterlimit:4;stroke-dasharray:8, 1;stroke-dashoffset:0;stroke-opacity:1"
       d="m 96.927817,109.58349 37.138703,-0.0165"
       id="path932-0-8"
       inkscape:connector-curvature="0"
       sodipodi:nodetypes="cc" />
    <path
       style="fill:#666666;fill-opacity:1;stroke-width:0.07179993"
       d="m 133.33531,284.07425 c 0.48067,-1.56181 0.89884,-2.903 0.92928,-2.98043 0.0395,-0.10041 0.30807,0.6825 0.9368,2.73049 0.4848,1.57922 0.90537,2.94397 0.93459,3.03282 0.0515,0.15645 0.0384,0.16151 -0.4184,0.16188 l -0.47153,3.8e-4 0.003,3.01558 0.003,3.01561 -0.93338,8.2e-4 -0.93342,8.3e-4 -0.003,-3.01561 -0.003,-3.01558 -0.46669,4.3e-4 c -0.2567,6.5e-4 -0.46322,-0.0238 -0.45895,-0.0535 0.005,-0.0296 0.40103,-1.3317 0.8817,-2.89353 z"
       id="path906-6-0-7"
       inkscape:connector-curvature="0" />
    <path
       style="fill:#666666;fill-opacity:1;stroke-width:2.5017972;stroke-miterlimit:4;stroke-dasharray:none"
       d="m 134.92545,106.66533 c -0.47308,1.53714 -0.88466,2.85715 -0.91461,2.93335 -0.0389,0.0988 -0.30322,-0.67172 -0.922,-2.68736 -0.47716,-1.55428 -0.89109,-2.89749 -0.91985,-2.98491 -0.0507,-0.154 -0.0378,-0.15898 0.4118,-0.15933 l 0.46409,-3.9e-4 -0.002,-2.96795 -0.002,-2.967975 0.91866,-8.25e-4 0.91866,-8.13e-4 0.002,2.967983 0.002,2.96796 0.45932,-4.1e-4 c 0.25263,-6.6e-4 0.45589,0.0233 0.45169,0.0525 -0.005,0.0292 -0.39469,1.31067 -0.86776,2.84784 z"
       id="path906-6-0-71"
       inkscape:connector-curvature="0" />
    <path
       style="fill:#000000;stroke-width:0.24331151"
       d="m 85.138525,279.66727 c -0.327298,-0.46664 -0.207781,-0.62538 0.449085,-1.64992 0.240214,-0.37464 1.192998,-1.00984 1.62127,-1.65145 0.500824,-0.75032 1.056298,-2.49172 1.056298,-2.49172 l 0.300942,-0.72652 c 0.358523,-0.86556 0.309545,-1.20677 -0.716471,-4.99128 -0.435355,-1.60585 -0.99833,-3.68617 -1.251047,-4.62293 -0.83838,-3.10759 -2.437661,-9.70045 -2.892081,-11.92226 -1.051852,-5.14281 -1.062099,-5.47082 -0.343236,-10.98574 1.031388,-7.91253 0.978081,-9.18616 -0.701091,-16.75177 -4.166736,-18.77349 -3.958785,-31.3753 -1.874448,-39.98511 0.352754,-1.45713 0.237265,-1.51442 0.237265,-2.01148 0,-0.62176 0.0024,-0.65265 0.0024,-0.78647 0,-0.13382 -0.101501,-1.07606 -0.128139,-1.17549 -0.119261,-0.44507 -0.236161,-0.99021 -0.243685,-4.03466 -0.01428,-5.76766 -0.164167,-6.89672 -1.319961,-9.94153 l -0.44462,-1.1713 -0.250988,1.32887 c -0.138039,0.73089 -0.378712,2.20482 -0.534828,3.27539 -0.156115,1.07057 -0.390441,2.51394 -0.520735,3.20748 -0.15433,0.82151 -0.153251,1.92389 0.003,3.16305 0.131991,1.04612 0.31171,2.72249 0.399376,3.72524 0.08766,1.00275 -0.04274,0.81188 0.09953,1.59953 0.08089,0.58768 0.0179,0.15376 0.05819,0.95948 -0.01778,0.92013 -0.03514,1.06191 -0.109658,2.06557 -0.07451,1.00366 -0.800875,4.43687 -1.614139,7.62937 -1.857037,7.28984 -1.857528,6.95757 0.01348,9.06221 2.756994,3.10125 3.102781,4.50922 1.816479,7.39626 -0.804389,1.8054 -0.808197,1.83102 -0.357646,2.4051 0.525603,0.66972 0.601577,1.48788 0.138161,1.48788 -0.174483,0 -0.691005,0.38562 -1.147816,0.85694 l -0.830581,0.85694 -1.832754,-0.15482 c -2.08576,-0.17621 -2.750523,-0.50161 -3.314013,-1.62218 -0.21807,-0.43365 -0.824595,-1.23266 -1.347845,-1.77557 l -0.951348,-0.9871 0.367734,-3.83863 c 0.202254,-2.11124 0.417308,-3.91884 0.477894,-4.01688 0.06059,-0.098 -0.04329,-0.60895 -0.23083,-1.13539 -0.194241,-0.54522 -0.345598,-1.92168 -0.351681,-3.19825 -0.0133,-2.78664 -0.4688,-7.14916 -0.78747,-7.54155 -0.131091,-0.16142 -0.172839,-0.39947 -0.09278,-0.52902 0.08006,-0.12954 0.178921,-2.51575 0.219688,-5.30268 0.069,-4.71805 0.118469,-5.20123 0.717913,-7.01363 1.652766,-4.99704 1.552864,-11.33272 1.399777,-14.33302 0.07524,-3.96723 -0.256721,-5.81699 -0.189394,-8.35579 0.260198,-8.98552 2.497641,-12.81255 7.98985,-13.66617 0.991326,-0.15408 2.142907,-0.33321 2.559062,-0.39806 0.416161,-0.0649 1.428423,-0.65704 2.249473,-1.31598 0.821052,-0.65893 2.320032,-1.6069 3.331061,-2.10657 2.383205,-1.17786 2.292762,-0.4875 1.079913,-8.24341 -0.251111,-1.60586 -0.593525,-4.06938 -0.7609,-5.47451 -0.233639,-1.96138 -0.490993,-2.94877 -1.107973,-4.25109 -1.223568,-2.58265 -1.021841,-4.64033 0.587693,-5.99465 0.400168,-0.33671 0.919706,-0.90545 1.154542,-1.26385 1.143406,-1.74507 5.640998,-2.85497 7.236089,-1.78572 0.543487,0.36431 0.928311,0.41198 2.214293,0.27427 l 1.55649,-0.16669 1.435381,1.11608 c 0.789464,0.61386 1.928094,1.47806 2.530294,1.92047 1.20573,0.88577 1.54874,2.0385 0.93605,3.14566 -0.16975,0.30678 -0.33092,1.21471 -0.35813,2.01764 -0.0272,0.80293 -0.2162,2.11681 -0.41996,2.91974 -0.67402,2.65593 -1.21841,7.24621 -1.31295,11.07067 l -0.0933,3.77132 1.53652,0.66963 c 0.84509,0.3683 2.41246,1.32624 3.48302,2.12877 1.07058,0.80252 2.27496,1.51022 2.67642,1.57263 0.40148,0.0625 1.54103,0.23957 2.53235,0.39365 5.89141,0.91567 8.18849,5.30261 8.01583,15.30853 -0.24802,14.3721 -0.1431,16.08136 1.2729,20.73608 1.22929,4.04098 1.3665,9.1664 0.46426,17.34218 -0.1329,1.20439 -0.22782,3.03714 -0.2109,4.07278 0.0169,1.03563 -0.10563,2.21222 -0.27232,2.61464 -0.23212,0.5604 -0.2393,0.98491 -0.0307,1.81361 0.14984,0.59507 0.27244,1.76593 0.27244,2.6019 0,0.83599 0.13155,2.15688 0.29233,2.93533 l 0.29234,1.41535 -0.99581,1.03241 c -0.54769,0.56782 -1.17423,1.38722 -1.39231,1.82087 -0.56497,1.12353 -1.2326,1.44679 -3.30609,1.60077 l -1.82484,0.1355 -1.17533,-1.07631 -1.17533,-1.07633 0.38457,-0.77088 c 0.49708,-0.99641 0.50627,-0.92387 -0.34538,-2.72635 -1.24459,-2.63421 -0.82952,-4.37148 1.69204,-7.08197 0.80906,-0.86967 1.47992,-1.66611 1.4908,-1.76985 0.0108,-0.10374 0.0466,-0.5171 0.0794,-0.91856 0.0329,-0.40146 -0.52108,-2.91974 -1.23099,-5.59616 -2.22171,-8.3759 -2.39866,-10.31507 -1.55192,-17.00765 0.16297,-1.28814 0.10872,-2.30769 -0.23304,-4.37961 -0.245,-1.48532 -0.52401,-3.30278 -0.62003,-4.0388 -0.26875,-2.06022 -0.44978,-2.41474 -0.79344,-1.55377 -1.16177,2.91045 -1.37967,4.47451 -1.31818,9.4614 0.0348,2.82429 -0.0515,5.40424 -0.20548,6.14839 -0.22899,1.10593 -0.19656,1.49055 0.23594,2.79811 2.6388,7.97771 2.01479,23.65476 -1.56147,39.22918 -0.18438,0.80292 -0.55005,2.39053 -0.81263,3.52802 -1.14159,4.94547 -1.13442,5.92627 0.10234,13.9904 0.57839,3.7712 0.51578,6.47049 -0.23421,10.09743 -1.11666,5.40013 -1.33669,6.34273 -3.09541,13.26048 -2.09609,8.24475 -1.78645,7.86948 -1.67486,8.88427 l 0.31791,1.04978 c 0,0 0.83975,1.59387 1.399,2.37581 0.68106,0.95228 1.82823,1.74664 1.74668,2.95527 -0.0404,0.59777 -0.34663,0.9793 -0.77884,1.12502 -1.41509,0.47709 -4.77121,0.90804 -4.77121,0.90804 0,0 -1.168518,0.25282 -4.429486,0.38862 -2.667254,0.1111 -9.201203,-1.69321 -9.242038,-1.73405 0,0 -0.494924,-0.0979 -0.811252,-0.54888 z m 9.015566,1.51142 c 0.24477,-0.13101 0.579465,-0.59635 0.743767,-1.0341 0.27773,-0.73994 0.309459,-0.75777 0.45139,-0.25384 0.325649,1.15626 0.946144,1.57835 2.052235,1.39597 1.678319,-0.27671 2.181595,-1.158 1.095661,-1.91862 -0.687264,-0.48137 -0.481893,-0.69238 0.297611,-0.30576 0.375192,0.18607 0.628989,0.54631 0.677121,0.96111 0.04237,0.36492 0.151835,0.66345 0.24331,0.66343 0.20073,-6e-5 3.835964,-0.67436 4.606764,-0.85451 0.86077,-0.2012 0.65359,-0.88404 -0.6611,-2.17895 -0.9348,-0.92076 -1.4016,-1.67272 -2.06084,-3.31982 l -0.85231,-2.12947 0.47909,-1.78055 c 5.04999,-18.76887 5.76361,-23.36722 4.75131,-30.61477 -1.09642,-7.84967 -1.09145,-8.04653 0.35919,-14.23195 1.35474,-5.77655 2.3315,-11.15643 2.89346,-15.9369 0.72294,-6.14995 0.82458,-7.55261 0.84622,-11.67896 0.0309,-5.87463 -0.72439,-11.54764 -1.9236,-14.44957 -0.25844,-0.62538 -0.25234,-1.03306 0.0349,-2.33891 0.26261,-1.19361 0.31138,-2.53641 0.19883,-5.47452 -0.17372,-4.53513 0.0386,-6.21632 1.23922,-9.81347 0.97795,-2.92994 0.95955,-2.81534 0.41879,-2.60782 -0.40415,0.15509 -1.34796,0.29845 -5.94859,0.90357 -2.2502,0.29597 -3.03531,0.14818 -4.09499,-0.77085 -0.275195,-0.23868 -1.375534,-1.00853 -2.445175,-1.71078 -1.069648,-0.70224 -1.897984,-1.32363 -1.840769,-1.38084 0.135119,-0.13512 1.949936,0.78845 3.1926,1.62469 3.642684,2.45138 10.781924,2.02259 12.408894,-0.74526 0.51079,-0.86899 0.71515,-5.96957 0.32073,-8.00555 l -0.16498,-0.8516 0.31867,0.72994 c 1.08649,2.48888 0.95086,7.23765 -0.2576,9.01841 l -0.5762,0.84908 0.59946,3.82546 c 0.32971,2.10402 0.72531,4.60848 0.87912,5.56548 0.20652,1.28504 0.21025,2.36658 0.0142,4.1363 -0.73441,6.63128 -0.59561,8.2405 1.29799,15.04849 2.03933,7.33196 2.04187,7.44464 0.21043,9.37898 -2.83763,2.99707 -3.18269,4.23009 -1.94869,6.96312 0.97955,2.1695 1.06568,2.63775 0.52338,2.84584 -0.58628,0.22498 -0.42583,0.75167 0.48013,1.57609 1.65939,1.51002 4.62449,1.03169 5.59802,-0.90306 0.22707,-0.45126 0.7938,-1.20142 1.2594,-1.66702 0.5728,-0.57279 0.79396,-0.97622 0.68399,-1.24765 -0.0894,-0.22061 -0.25855,-1.64239 -0.37592,-3.1595 -0.11736,-1.5171 -0.31191,-3.11509 -0.43228,-3.55109 -0.14396,-0.52136 -0.12747,-0.95142 0.0481,-1.25626 0.14688,-0.25496 0.34261,-1.9964 0.43496,-3.86991 0.0924,-1.87351 0.2998,-4.93923 0.46104,-6.81272 0.48455,-5.63008 0.21441,-10.12022 -0.81394,-13.52906 -1.29449,-4.29111 -1.48571,-5.94335 -1.37683,-11.897 0.29156,-15.94372 -0.23392,-19.30821 -3.43645,-22.00296 -1.62679,-1.36886 -5.89907,-2.15253 -10.55954,-1.93696 -2.10118,0.0972 -2.81744,0.0624 -2.55478,-0.12436 0.20073,-0.14268 0.57497,-0.26109 0.83166,-0.26314 0.25667,-0.002 1.184,-0.12864 2.0607,-0.28131 l 1.59399,-0.27759 -0.9658,-0.83775 c -0.53117,-0.46077 -1.86908,-1.27591 -2.9731,-1.81141 l -2.00733,-0.97365 v -2.56511 -2.56511 l -0.79076,0.64897 c -3.643996,2.99057 -7.571942,3.01125 -10.861303,0.0571 l -0.581384,-0.52214 0.142643,0.97326 c 0.07845,0.53528 0.216832,1.65291 0.307503,2.48363 l 0.164868,1.51039 -1.429306,0.62643 c -1.470588,0.64452 -4.470695,2.54856 -4.470695,2.83735 0,0.0893 0.793805,0.29172 1.76401,0.44987 3.021706,0.49256 2.996631,0.75147 -0.06083,0.62804 -11.080458,-0.4473 -14.153944,2.97147 -13.872043,15.43047 0.318633,14.08267 0.203382,15.95244 -1.289772,20.92479 -0.874058,2.91071 -1.066108,9.25595 -0.441855,14.5987 0.255556,2.18721 0.723706,7.77405 0.815532,9.73246 0.0157,0.33454 -0.112754,2.29912 -0.285427,4.36568 -0.301506,3.60843 -0.29554,3.77242 0.150559,4.1363 0.255484,0.20838 0.837706,0.92634 1.293833,1.59545 1.155683,1.69532 1.359464,1.80833 3.276856,1.8171 2.146016,0.0101 4.388425,-1.77825 2.931322,-2.33739 -0.538912,-0.20681 -0.45631,-0.67604 0.48662,-2.76442 1.208084,-2.67563 0.91837,-3.88582 -1.572672,-6.56941 -1.629991,-1.75598 -2.027,-2.51294 -1.827756,-3.48495 0.08715,-0.42516 0.825147,-3.40077 1.639998,-6.61248 1.669244,-6.57923 1.855523,-8.90138 1.17343,-14.62791 -0.338895,-2.84518 -0.333939,-2.90205 0.95154,-10.91979 0.386954,-2.41353 0.371445,-2.62418 -0.295552,-4.01466 -1.072706,-2.23622 -1.088877,-6.28909 -0.03593,-9.00236 0.314071,-0.80931 0.324753,-0.81538 0.214354,-0.1218 -1.278163,8.03015 -0.392626,9.94792 4.966803,10.75643 3.363561,0.50742 5.401864,0.13662 7.681294,-1.39734 1.180549,-0.79446 3.055149,-1.76213 3.177201,-1.64008 0.04875,0.0488 -0.797105,0.68596 -1.879685,1.41601 -1.082586,0.73006 -2.255367,1.57368 -2.606175,1.87475 -0.883258,0.75802 -1.868782,0.88796 -4.216661,0.556 -1.109538,-0.15686 -2.77921,-0.38706 -3.710384,-0.51152 -0.931175,-0.12445 -1.889215,-0.28855 -2.128974,-0.36465 -0.539181,-0.17111 -0.539077,-0.16714 0.02747,1.00547 1.436859,2.97396 1.783144,4.99344 1.958104,11.41952 0.09109,3.34553 0.248357,6.26446 0.34949,6.48649 0.108082,0.23733 -0.06448,1.19003 -0.418663,2.31147 -2.597417,8.22401 -1.88296,22.12536 2.03008,39.49937 1.879574,8.34539 1.86003,7.77499 0.596038,17.39678 -0.568516,4.32766 -0.482567,5.67209 0.731109,11.43563 0.570762,2.71046 3.03711,12.34926 4.402462,17.20537 l 0.613627,2.18247 -0.750879,1.86337 c -0.880436,2.18492 -1.714618,3.46249 -2.897344,4.4374 -1.130866,0.93216 -0.893847,1.12634 2.078905,1.7031 2.965042,0.57528 2.765939,0.58498 2.765939,-0.13456 0,-0.43451 0.220039,-0.71395 0.790759,-1.0042 l 0.790762,-0.40218 -0.569468,0.61753 c -1.132558,1.22813 0.782589,2.74006 2.384709,1.88264 z m 0.694868,-4.08061 c -0.0246,-0.23419 -0.06555,-1.5207 -0.09107,-2.85893 -0.02552,-1.33819 -0.169803,-3.30902 -0.320632,-4.37959 -0.692966,-4.91851 -0.84268,-7.79714 -0.545638,-10.49102 0.753804,-6.83625 0.865283,-10.37337 0.402425,-12.76849 -0.306387,-1.58543 -0.391375,-2.77305 -0.284636,-3.97746 0.0837,-0.9444 0.257372,-2.86675 0.385935,-4.27187 0.325029,-3.55234 0.312482,-7.48091 -0.0328,-10.27013 -0.295134,-2.38411 -0.167797,-24.93368 0.321528,-22.84953 0.614386,2.61681 1.175411,18.89694 0.817384,25.92249 -0.141865,2.78381 -0.08341,4.71261 0.250717,8.2726 0.410207,4.37065 0.412053,4.79904 0.03152,7.31882 -0.436104,2.8877 -0.390811,4.06101 0.46959,12.16556 0.412924,3.88959 0.412753,3.89789 -0.200665,9.48916 -0.337674,3.0779 -0.561128,6.1188 -0.496562,6.75758 0.130937,1.29538 -0.06089,2.36661 -0.423764,2.36661 -0.131274,0 -0.258776,-0.1916 -0.283342,-0.4258 z m 1.001788,-14.36959 c 0.01458,-2.27444 -0.272734,-5.86786 -0.64581,-8.0759 -0.222055,-1.31427 -0.820106,3.8874 -0.853215,7.421 -0.02472,2.63473 0.371108,6.97241 0.721536,7.90763 0.216482,0.57771 0.759729,-4.48992 0.777489,-7.25273 z m -0.391068,-19.09445 c -0.05887,-4.55342 -0.383514,-5.53271 -0.774618,-2.33674 -0.251748,2.0572 -0.255655,2.88793 -0.0192,4.08967 0.460748,2.34195 0.83608,1.51316 0.793841,-1.75293 z m -0.280295,-20.24698 c -0.125717,-2.12105 -0.282471,-16.77929 -0.434502,-15.82481 -0.231132,1.45112 -0.1312,18.50783 0.08339,19.71779 l 0.172622,0.97325 0.161341,-1.21656 c 0.08873,-0.66911 0.09645,-2.31146 0.01711,-3.64967 z M 88.05649,235.6764 c -1.170002,-0.61838 -1.68279,-1.46699 -1.808925,-2.99358 -0.07793,-0.94323 -0.05433,-1.08018 0.09258,-0.53655 0.813109,3.00955 3.482012,4.28052 5.344656,2.54521 0.751314,-0.69997 0.958443,-0.58186 0.270672,0.15434 -1.264985,1.35406 -2.436416,1.60361 -3.898977,0.83058 z m 11.216865,0.21116 c -0.688973,-0.27473 -1.703307,-1.16133 -1.703307,-1.48881 0,-0.1196 0.355843,0.0363 0.790762,0.34656 1.91637,1.36685 4.1584,0.49485 4.89518,-1.90392 l 0.36296,-1.18173 0.017,0.99807 c 0.0383,2.25312 -2.35972,4.02847 -4.362539,3.22983 z m 13.868635,-28.38287 c 0,-1.07345 0.13874,-1.73018 0.48572,-2.29928 0.58027,-0.95173 0.61875,-0.62694 0.20497,1.73007 -0.37864,2.15682 -0.69069,2.41397 -0.69069,0.56921 z m -37.044898,0.91871 c -0.07765,-0.20073 -0.2103,-0.85767 -0.294767,-1.45988 -0.08446,-0.60218 -0.214953,-1.34125 -0.289976,-1.64234 -0.193492,-0.7766 0.318836,-0.68601 0.74138,0.13111 0.258223,0.49935 0.302523,1.02946 0.167731,2.00731 -0.100747,0.73082 -0.246708,1.16453 -0.324368,0.9638 z m 17.918256,-6.55923 c -0.902481,-0.21239 -1.707104,-0.74517 -2.210238,-1.46349 -0.417523,-0.5961 -0.255078,-0.94591 0.246106,-0.52996 0.182828,0.15171 0.404455,0.22207 0.492508,0.15633 0.08805,-0.0657 0.110565,-0.0518 0.05004,0.0311 -0.138418,0.18942 0.324882,0.66005 1.011513,1.02751 1.244117,0.66584 2.856048,0.10055 3.725734,-1.30668 0.713884,-1.15507 0.893805,-0.91156 0.253637,0.34327 -0.703967,1.3799 -2.136651,2.0791 -3.569287,1.74196 z m 2.989168,-69.35246 c 1.712954,-0.74988 3.168664,-2.28092 3.459924,-3.63895 1.45311,-6.77563 1.15878,-10.36474 -1.153291,-14.06303 -0.822787,-1.31612 -1.288657,-1.32347 -3.394118,-0.0536 -2.232875,1.34672 -3.031984,1.55536 -4.744558,1.23877 -3.867022,-0.71485 -4.847905,1.54647 -3.807796,8.77849 0.275186,1.91339 0.619084,3.95385 0.764217,4.53439 0.709506,2.83794 5.643292,4.61895 8.875622,3.20395 z"
       id="path4055"
       inkscape:connector-curvature="0"
       sodipodi:nodetypes="csscccccssssssccccscccccsccscsccccccsccccsccccccsccccsccsccsccsccscscssscccsccccsccccccccsscsccccssscsccssscscsccccccccccscccsccccsccccccsccccccsccssccsccccccscsscscccccccccsccccccsssscscsccccccccsccccsccccscscsccssscccccsccscccccssccccscccssscccccccccccccccccccccccsccccccccccccscccccccscsccccccsscssccss" />
  </g>
</svg>
