<?xml version="1.0" encoding="UTF-8" standalone="no"?>
<!-- Created with Inkscape (http://www.inkscape.org/) -->

<svg
   xmlns:dc="http://purl.org/dc/elements/1.1/"
   xmlns:cc="http://creativecommons.org/ns#"
   xmlns:rdf="http://www.w3.org/1999/02/22-rdf-syntax-ns#"
   xmlns:svg="http://www.w3.org/2000/svg"
   xmlns="http://www.w3.org/2000/svg"
   xmlns:sodipodi="http://sodipodi.sourceforge.net/DTD/sodipodi-0.dtd"
   xmlns:inkscape="http://www.inkscape.org/namespaces/inkscape"
   width="200mm"
   height="200mm"
   viewBox="0 0 200 200"
   version="1.1"
   id="svg8"
   inkscape:version="0.92.3 (2405546, 2018-03-11)"
   sodipodi:docname="woman_height.svg"
   inkscape:export-filename="D:\CloudStation\CloudStation\twinster\SHOW MY SIZE\Pics\SVG\woman_height.png"
   inkscape:export-xdpi="96"
   inkscape:export-ydpi="96">
  <defs
     id="defs2" />
  <sodipodi:namedview
     id="base"
     pagecolor="#ffffff"
     bordercolor="#666666"
     borderopacity="1.0"
     inkscape:pageopacity="0.0"
     inkscape:pageshadow="2"
     inkscape:zoom="1.4"
     inkscape:cx="291.91281"
     inkscape:cy="482.01863"
     inkscape:document-units="mm"
     inkscape:current-layer="layer1"
     showgrid="false"
     inkscape:window-width="1920"
     inkscape:window-height="1001"
     inkscape:window-x="-9"
     inkscape:window-y="-9"
     inkscape:window-maximized="1"
     showguides="false" />
  <metadata
     id="metadata5">
    <rdf:RDF>
      <cc:Work
         rdf:about="">
        <dc:format>image/svg+xml</dc:format>
        <dc:type
           rdf:resource="http://purl.org/dc/dcmitype/StillImage" />
        <dc:title />
      </cc:Work>
    </rdf:RDF>
  </metadata>
  <g
     inkscape:label="Ebene 1"
     inkscape:groupmode="layer"
     id="layer1"
     transform="translate(0,-97)">
    <path
       style="fill:#000000;stroke-width:0.25169832"
       d="m 97.772255,292.23695 c -0.808168,-1.31845 -0.477321,1.50817 -2.784772,1.30245 l -2.715332,-0.42399 -1.850709,-1.20131 c -1.750003,-1.13595 -0.726852,-3.62101 -0.312504,-5.48944 0.140735,-0.17304 0.457259,-2.00782 0.89761,-3.94133 0.440354,-1.93352 0.83773,-3.57584 0.883062,-3.64963 0.191741,-0.31208 -0.988189,-4.94797 -3.257395,-12.79815 -1.333112,-4.61182 -2.555468,-9.28821 -2.716341,-10.39197 -0.29201,-2.00348 -0.108562,-5.21983 0.852714,-14.95047 0.154878,-1.56776 0.213918,-4.78842 0.136121,-7.42511 -0.140657,-4.76686 -0.668405,-8.30389 -1.915314,-12.83661 -0.285615,-1.03825 -0.647957,-2.39742 -0.805206,-3.02038 -0.389188,-1.54181 -0.824294,-1.95366 -0.598882,-0.56687 0.291443,1.79305 -0.678136,1.7603 -2.750559,-0.0929 -0.545904,-0.48816 -1.282905,-1.13405 -1.637779,-1.4353 -0.40572,-0.34442 -0.662457,-1.07951 -0.881979,-1.94222 -0.369904,-1.45372 -1.078005,-3.20026 -2.301035,-5.67554 -0.701289,-1.41934 -0.752545,-1.72975 -0.851918,-5.15981 -0.2055,-7.09346 -0.655171,-9.38989 -0.621,-10.06793 l 0.03824,-0.7593 c -0.03348,-2.13431 -0.05441,-0.99578 -0.175914,-3.23862 -0.176248,-3.25355 -0.0067,-5.03184 0.891426,-9.62814 0.597959,-3.10808 0.500013,-3.72733 0.725357,-5.54347 0.234363,-1.13044 0.642727,-9.53138 0.786098,-16.17162 0.213986,-9.91121 0.593915,-11.97411 2.631631,-14.28908 1.224123,-1.39068 2.102983,-1.81723 5.36445,-2.60362 2.627179,-0.63346 5.10798,-1.42859 6.197241,-1.98633 l 0.61459,-0.31469 -0.866288,-0.18056 c -1.542116,-0.32142 -4.364278,-1.83258 -5.385015,-2.88348 -0.962432,-0.99085 -0.974546,-1.02434 -0.370626,-1.02434 1.772801,0 2.378237,-1.56964 2.151841,-5.57885 -0.569012,-10.07668 -0.498476,-11.38962 0.743581,-13.8407 1.488752,-2.93792 4.878882,-4.73322 8.951631,-4.74049 3.37312,-0.15288 2.252472,-0.0495 4.17995,0.25468 0.6858,0.01 3.26739,1.13732 4.40623,1.92529 1.46924,1.01657 2.85667,2.88405 3.31564,4.46287 0.53464,1.83909 0.4976,4.00933 -0.15,8.78977 -0.47499,3.5063 -0.50479,4.22268 -0.23079,5.54922 0.36338,1.75936 1.0515,2.85968 1.92554,3.07905 0.8219,0.20629 0.77694,0.39565 -0.33133,1.39563 -1.31483,1.18635 -2.47582,1.85827 -4.09009,2.36711 -0.76139,0.24 -1.47986,0.52117 -1.59659,0.62481 -0.29002,0.25751 2.11142,1.12632 5.54011,2.00434 4.27459,1.09465 5.36362,1.75814 6.73962,4.1061 1.05855,1.80628 1.36009,3.95721 1.52164,10.85384 0.28321,12.09025 0.78187,19.2871 1.63175,23.54963 0.98408,4.93562 1.08877,6.06251 0.90019,9.69039 -0.10073,1.93807 -0.32352,6.75181 -0.49507,10.69718 l -0.31191,7.1734 -1.02919,2.13943 c -1.11852,2.32516 -2.07753,4.98294 -2.07753,5.75769 0,0.2824 -0.55656,0.94686 -1.32141,1.57759 -0.72678,0.59934 -1.37805,1.15335 -1.44727,1.23114 -0.39767,0.44691 -1.77763,1.24982 -2.1481,1.24982 -0.36712,0 -0.4142,-0.1787 -0.30422,-1.15453 0.23651,-2.09829 -0.34206,-0.7829 -1.35721,3.08559 -1.77532,6.76546 -2.06873,8.86999 -2.06431,14.80688 0.003,3.67586 0.16956,6.81423 0.54775,10.30456 0.29911,2.7604 0.54382,6.34887 0.54382,7.97437 v 2.95548 l -2.24424,7.88263 c -2.87014,10.08097 -3.05916,10.79956 -3.39753,12.91658 -0.29353,1.83656 -0.38562,2.69353 0.85549,7.81853 1.27436,5.37919 0.69712,5.93627 0.63405,6.78359 l -2.57431,1.65057 -1.01702,0.38139 c -2.679616,-0.0847 -1.499613,-0.0404 -2.790852,-0.29919 -0.47048,-0.5465 -0.606212,-0.69039 -0.829864,-1.03559 z m -4.134052,0.0958 c -0.07093,-0.18484 0.112003,-0.60958 0.406516,-0.94387 0.458053,-0.51993 0.51019,-0.53503 0.360598,-0.10441 -0.344792,0.9925 -0.257266,1.25706 0.442551,1.33767 0.471219,0.0543 0.886736,-0.1202 1.321415,-0.55488 0.603513,-0.60351 0.634059,-0.7724 0.634059,-3.50568 0,-1.57939 -0.126954,-3.48171 -0.282121,-4.22738 -0.155167,-0.74568 -0.262244,-2.38789 -0.237948,-3.64935 0.02429,-1.26147 -0.144208,-3.35687 -0.374452,-4.65643 -0.466699,-2.63418 -0.393555,-6.16871 0.267662,-12.93416 0.444941,-4.55257 0.456007,-10.26341 0.03163,-16.3254 -0.267077,-3.81505 -0.259131,-4.86283 0.05249,-6.9217 0.256159,-1.69242 0.380762,-4.93804 0.412015,-10.73217 0.02464,-4.56833 0.193811,-10.16911 0.375927,-12.4462 0.486741,-6.08593 0.01727,-15.59475 -0.8862,-17.94915 -0.147485,-0.38433 0.0074,-0.4377 1.270594,-0.4377 1.415773,0 1.436007,0.0102 1.277692,0.64095 -0.873372,3.47977 -1.221918,14.02938 -0.652408,19.74661 0.144794,1.45356 0.233607,4.28517 0.197363,6.29246 -0.115802,6.41341 0.01027,10.86737 0.395436,13.96926 0.335971,2.70578 0.332537,3.76857 -0.03292,10.20342 -0.405644,7.14215 -0.404597,7.22267 0.183915,14.1429 0.470466,5.53212 0.551983,7.64709 0.397378,10.30999 -0.106984,1.84257 -0.232498,4.69457 -0.278922,6.33776 -0.04642,1.64319 -0.197033,3.34216 -0.334686,3.77548 -0.359621,1.13203 -0.61997,5.43675 -0.412494,6.82031 0.220597,1.47102 0.862059,2.14773 2.035887,2.14773 1.02401,0 1.31051,-0.4358 0.8558,-1.30175 -0.3067,-0.58408 -0.30594,-0.58442 0.23232,-0.10651 0.29701,0.26372 0.54002,0.67275 0.54002,0.90897 0,0.61628 1.00643,0.36883 2.05281,-0.50473 0.7431,-0.62036 0.84157,-0.84599 0.8405,-1.92584 -9.5e-4,-1.31137 -0.38242,-3.25303 -1.15404,-5.87958 -1.3229,-4.50311 -1.41025,-5.69153 -0.60939,-8.29149 0.19435,-0.63096 1.51383,-5.22471 2.93219,-10.20833 l 2.57883,-9.06114 -0.005,-3.39794 c -0.003,-1.86886 -0.2224,-5.32341 -0.48884,-7.67679 -0.64706,-5.71527 -0.66696,-15.30749 -0.0386,-18.62567 0.45674,-2.41209 1.78691,-7.83132 2.68745,-10.94889 0.29991,-1.03826 0.65843,-2.28415 0.79672,-2.76868 0.1383,-0.48452 0.35069,-1.22073 0.47199,-1.63604 1.37374,-4.70348 2.01881,-8.92654 2.00859,-13.14957 -0.0135,-5.57343 -0.38676,-7.23125 -3.2244,-14.32088 -2.25598,-5.63637 -2.63194,-7.32176 -2.49069,-11.16524 0.10971,-2.98499 0.59146,-5.36592 2.088,-10.31963 0.18263,-0.60447 0.17104,-0.61245 -0.2944,-0.20261 -1.46779,1.29244 -3.91841,1.7654 -5.98363,1.15481 -1.06625,-0.31525 -3.93053,-2.85585 -3.93053,-3.48638 0,-0.17512 0.39403,0.0756 0.87563,0.55722 1.17705,1.17705 2.99485,2.04841 4.54082,2.1766 1.55971,0.12935 3.21833,-0.57487 4.52678,-1.92198 0.96252,-0.99096 1.87599,-3.09717 1.90429,-4.39078 0.01,-0.44471 0.12458,-1.03511 0.25523,-1.31198 0.16291,-0.34524 0.20536,0.13435 0.13514,1.52665 -0.0695,1.37691 -0.28926,2.46445 -0.68323,3.38023 l -0.58082,1.35018 0.70602,4.21987 c 0.38832,2.32092 0.99123,5.33039 1.33982,6.68771 0.47641,1.85504 0.68236,3.49906 0.82941,6.62085 0.1076,2.28417 0.31429,5.11577 0.45931,6.29246 0.35612,2.88951 0.73249,6.3533 1.05291,9.69038 0.14623,1.52278 0.40848,4.1564 0.5828,5.8525 l 0.31693,3.0838 -0.73431,0.69166 c -0.83988,0.79109 -1.68084,2.55621 -1.68856,3.54415 -0.006,0.74819 -0.5718,3.44946 -0.86575,4.13216 -0.14414,0.33477 -0.0704,0.44047 0.30711,0.44047 0.3606,0 0.64462,-0.35578 1.03619,-1.29798 0.29667,-0.71389 0.59956,-1.23785 0.67305,-1.16434 0.0735,0.0735 0.0581,0.87046 -0.0341,1.77102 -0.16766,1.63657 -0.16823,1.63751 -1.13938,1.92848 -0.5344,0.16011 -1.28468,0.57601 -1.66732,0.92421 l -0.69568,0.63311 0.82505,-0.1603 0.82506,-0.16031 -0.63628,0.93762 c -0.59613,0.87844 -0.82143,1.62245 -0.49131,1.62245 0.22609,0 2.95474,-2.1486 3.39727,-2.67509 0.2178,-0.25912 0.70245,-1.42331 1.07697,-2.58709 0.37454,-1.16377 1.12471,-3.03263 1.66706,-4.15302 l 0.98609,-2.03707 0.26912,-6.41831 c 0.14803,-3.53006 0.38751,-8.11726 0.5322,-10.19378 0.27946,-4.01079 0.23467,-4.51116 -1.02523,-11.45228 -0.7177,-3.95384 -0.94646,-7.21406 -1.36041,-19.38708 -0.38441,-11.30428 -0.5025,-12.2023 -1.89265,-14.39435 -0.39715,-0.62624 -1.10211,-1.41712 -1.56659,-1.75752 -0.78026,-0.57181 -1.34341,-0.7805 -3.92779,-1.45552 -4.78806,-1.25062 -7.64449,-2.39383 -8.09785,-3.24095 -0.15288,-0.28567 -0.34668,-1.02069 -0.43066,-1.63338 -0.17991,-1.31262 -0.50293,-1.93863 -0.78433,-1.52003 -0.35559,0.52895 -2.307739,1.35522 -3.201868,1.35522 -1.030488,0 -2.895895,-0.80834 -3.560734,-1.54297 -0.446006,-0.49284 -0.462193,-0.46491 -0.762056,1.31474 -0.219577,1.30318 -0.471698,1.97703 -0.889963,2.37864 -0.559699,0.53741 -3.280606,1.73799 -4.862464,2.14555 -0.415302,0.107 -1.491313,0.37801 -2.391135,0.60223 -3.207303,0.79924 -3.637155,0.99693 -4.938981,2.27142 -1.492277,1.46093 -2.268491,3.25105 -2.479014,5.71713 -0.07449,0.87226 -0.253617,5.49353 -0.398119,10.26951 -0.356557,11.78476 -0.812953,16.76113 -2.029962,22.13413 -0.465072,2.05325 -0.535696,5.12847 -0.248898,10.83834 0.156441,3.11477 0.352913,7.52888 0.436609,9.80914 l 0.15216,4.14593 1.080297,2.14654 c 1.087708,2.16125 2.133454,5.0077 2.133454,5.80714 0,0.41517 1.900918,2.19521 3.334999,3.12292 0.917209,0.59333 0.940871,0.0715 0.05589,-1.23259 l -0.636282,-0.93762 0.761884,0.16734 c 1.266423,0.27815 0.67384,-0.49571 -0.89656,-1.17083 -0.887678,-0.38162 -1.408106,-0.76695 -1.475991,-1.09286 -0.173907,-0.83488 -0.371958,-3.14623 -0.269589,-3.14623 0.05251,0 0.38073,0.62296 0.729305,1.38435 0.397673,0.86863 0.789647,1.38434 1.052177,1.38434 0.260413,0 0.365975,-0.13662 0.279563,-0.36181 -0.301481,-0.78565 -0.633333,-2.35166 -0.793865,-3.74628 -0.214195,-1.86082 -0.694259,-3.00638 -1.637683,-3.90796 l -0.746448,-0.71334 0.267183,-2.36824 c 0.146957,-1.30253 0.303208,-2.76466 0.347244,-3.24918 0.04404,-0.48451 0.2092,-2.24011 0.367049,-3.90132 0.15785,-1.66121 0.404094,-4.26629 0.547208,-5.78906 0.143113,-1.52278 0.365347,-3.59804 0.493848,-4.61171 0.128512,-1.01367 0.233649,-3.34965 0.233649,-5.1911 0,-2.39426 0.111826,-3.66182 0.392536,-4.44943 0.482274,-1.35315 1.187973,-4.70958 2.008864,-9.55451 0.587668,-3.46845 0.599163,-3.7166 0.208422,-4.49986 -0.562461,-1.12749 -1.034949,-4.45368 -0.682687,-4.80595 0.18626,-0.18625 0.31556,0.16001 0.43306,1.15976 0.343546,2.92304 2.287303,5.57465 4.529927,6.1796 2.060383,0.55578 4.618929,-0.23138 6.337289,-1.94974 0.355579,-0.35558 0.707635,-0.58539 0.782349,-0.51067 0.07471,0.0747 -0.526792,0.81235 -1.336672,1.63919 -1.53403,1.56617 -2.570043,2.04962 -4.39832,2.05243 -1.168373,0.002 -2.860803,-0.59609 -3.873211,-1.36829 l -0.792827,-0.60471 0.698635,2.71299 c 1.019003,3.95706 1.572497,8.08678 1.375387,10.26199 -0.211892,2.33831 -0.933267,5.07312 -2.21049,8.38019 -2.726841,7.06054 -3.472262,10.26514 -3.472262,14.92748 0,4.58286 0.638123,7.93908 3.21555,16.91236 3.257067,11.33942 4.023234,17.4063 3.226299,25.54738 -0.863328,8.81931 -0.956577,10.29011 -0.845706,13.33939 0.103097,2.83556 0.232393,3.54522 1.307067,7.17402 2.456928,8.29622 3.876406,13.40293 4.28754,15.42488 0.395981,1.94741 0.396356,2.2046 0.0057,3.90132 -2.113972,9.1811 -2.215217,9.9574 -1.422347,10.90602 0.878988,1.05164 3.247679,1.87958 2.917772,1.01986 z m -3.379146,-50.06653 c -1.078293,-0.73603 -1.769157,-2.06431 -1.732563,-3.33107 0.01606,-0.5559 0.07904,-0.7842 0.139967,-0.50733 0.60345,2.74239 2.511275,4.30176 4.471529,3.65482 0.475868,-0.15705 1.161419,-0.51854 1.523445,-0.80331 1.109189,-0.87249 0.976252,-0.32737 -0.156647,0.64235 -0.893577,0.76487 -1.252617,0.91086 -2.240101,0.91086 -0.805892,0 -1.437055,-0.17821 -2.00563,-0.56632 z m 11.200703,0.26035 c -0.54372,-0.31395 -0.79913,-0.55771 -1.38434,-1.32122 -0.325737,-0.42498 -0.265159,-0.41376 0.44149,0.0818 1.20667,0.84619 2.28756,1.09246 3.3312,0.759 1.30618,-0.41735 1.98513,-1.16808 2.42508,-2.68144 0.47052,-1.61855 0.70547,-1.5731 0.45633,0.0883 -0.14281,0.95233 -0.40266,1.42026 -1.27075,2.28835 -0.9866,0.98661 -1.2065,1.0905 -2.29342,1.08357 -0.6612,-0.004 -1.42872,-0.13845 -1.70559,-0.29831 z m -3.591329,39.39753 c -0.008,-2.22175 0.137685,-3.95721 0.468446,-5.58046 0.589835,-2.89468 0.596228,-4.1997 0.04956,-10.10738 -0.439395,-4.74828 -0.552382,-12.34624 -0.319959,-21.51597 0.11503,-4.53818 -0.136274,-9.33479 -0.500873,-9.56012 -0.09235,-0.0571 -0.357769,1.61754 -0.589824,3.72137 -0.385245,3.49267 -0.389546,4.29553 -0.0495,9.23667 0.466744,6.78213 0.466621,9.52692 -5.04e-4,13.96925 -0.672505,6.39392 -0.755601,11.20751 -0.251074,14.54439 0.265545,1.75626 0.386277,3.49159 0.29597,4.25408 -0.179381,1.51459 0.320581,4.85162 0.67394,4.49826 0.129552,-0.12956 0.230324,-1.68659 0.223941,-3.46009 z m -0.066,-58.84987 c 0,-0.83061 -0.109794,-1.68009 -0.243989,-1.88775 -0.167414,-0.25904 -0.243988,0.33342 -0.243988,1.88775 0,1.55433 0.07657,2.14679 0.243988,1.88773 0.134195,-0.20765 0.243989,-1.05713 0.243989,-1.88773 z m -14.769563,-9.69039 c -0.0724,-0.27687 -0.326082,-0.5034 -0.563731,-0.5034 -0.70746,0 -0.803817,0.31099 -0.199876,0.64503 0.805166,0.44534 0.911925,0.42554 0.763607,-0.14163 z m 30.128912,-0.31462 c 9.5e-4,-0.10383 -0.16794,-0.18878 -0.3756,-0.18878 -0.20765,0 -0.37927,-0.14157 -0.38139,-0.31461 -0.006,-0.48077 -0.49108,0.35832 -0.4957,0.85725 -0.003,0.35443 0.09,0.37326 0.62344,0.12585 0.345,-0.16001 0.62816,-0.37589 0.62925,-0.47971 z m -31.036696,-2.75295 c -0.08035,-0.20079 -0.13999,-0.14115 -0.152067,0.15207 -0.01092,0.26533 0.04855,0.41399 0.132197,0.33035 0.08364,-0.0836 0.09258,-0.30073 0.01986,-0.48242 z m -1.417971,-7.03189 c -0.387294,-2.38683 -0.321492,-8.31508 0.12032,-10.8408 0.443069,-2.53291 0.858825,-3.88042 2.586328,-8.3826 2.258293,-5.88551 2.416971,-6.5862 2.422428,-10.69718 0.0042,-3.14105 -0.09395,-4.06429 -0.704146,-6.62548 -0.389946,-1.63672 -0.767894,-2.91697 -0.839888,-2.84497 -0.820997,2.14057 -1.976433,9.26176 -2.318643,10.16713 -0.411494,1.76549 -0.332574,0.26373 -0.39847,4.58899 -0.03063,2.00729 -0.238473,5.17869 -0.461962,7.04756 -0.223498,1.86886 -0.524376,4.64383 -0.668631,6.16661 -0.144255,1.52277 -0.316317,3.1651 -0.382366,3.64962 -0.120425,0.88345 -0.21135,1.87357 -0.52488,5.71585 -0.164974,2.0218 -0.152988,2.08454 0.557348,2.91829 0.39928,0.46865 0.759015,0.82721 0.799426,0.79678 0.04043,-0.0304 -0.04366,-0.77732 -0.186864,-1.6598 z m 34.812787,-0.97166 c -0.0534,-0.4865 -0.38154,-3.77279 -0.72929,-7.30286 -0.34775,-3.53006 -0.75222,-7.43768 -0.89881,-8.68359 -0.1466,-1.2459 -0.34998,-4.36067 -0.45197,-6.92171 -0.10198,-2.56102 -0.30736,-4.94442 -0.45639,-5.29642 -0.26177,-0.61828 -1.22704,-5.16102 -1.92306,-9.05037 l -0.33782,-1.88774 -0.54393,1.76188 c -0.822,2.66263 -1.28893,5.04896 -1.46178,7.47079 -0.2348,3.28961 0.23144,5.25967 2.75907,11.65828 2.30933,5.84601 2.75316,7.597 3.06234,12.08152 0.14983,2.17314 -0.18701,7.63123 -0.5306,8.59745 -0.0906,0.25503 0.2343,0.0123 0.72218,-0.53948 0.73083,-0.8265 0.86998,-1.15898 0.79006,-1.88775 z m -17.628212,-2.20597 c 0.135092,-1.21908 0.105716,-1.32141 -0.379317,-1.32141 -0.480654,0 -0.51202,0.10016 -0.365687,1.16777 0.08803,0.64228 0.160059,1.34451 0.160059,1.56053 0,0.90241 0.448605,-0.17655 0.584945,-1.40689 z m 1.554493,-65.47487 c 1.110479,-0.51038 3.449969,-2.84723 4.472019,-4.46697 1.0461,-1.65788 1.69459,-3.97294 1.69459,-6.04969 0,-1.7228 -0.0363,-1.84617 -0.54257,-1.84617 -1.56074,0 -3.19874,-2.43167 -3.76233,-5.58531 l -0.30869,-1.72733 -0.538,1.59868 c -1.074086,3.19163 -2.607863,5.03052 -5.256173,6.30176 -1.452946,0.69744 -3.46587,1.17409 -4.958225,1.17409 -0.866044,0 -0.994405,0.0737 -0.994405,0.57138 0,0.86823 0.955436,4.13028 1.552551,5.30072 0.717617,1.40664 3.324963,3.87265 4.865757,4.60199 1.508436,0.71403 2.430502,0.74501 3.775476,0.12685 z"
       id="path837"
       inkscape:connector-curvature="0"
       sodipodi:nodetypes="cscscscscsccscccccssccccssssccssssccscscssscsssscsccsccscscsscsscccccccscccsccsssssscsccscssscsssccsccscsccscsccssssccscsccscccsscsssccccsccccccccssccccsscsscscccscscssccssccccsccccscscscsccccsscscsscscscscccsccssscssccccscssccssccccccsccccssscssccscccscssscccccccccccccccccscsccccsccccccssscscsssccccsccssccsscccssssscc" />
    <path
       style="fill:none;stroke:#666666;stroke-width:1;stroke-linecap:butt;stroke-linejoin:miter;stroke-miterlimit:4;stroke-dasharray:8,1;stroke-dashoffset:0;stroke-opacity:1"
       d="m 103.36195,281.33407 30.84006,-0.0165"
       id="path932-1-3-6-7"
       inkscape:connector-curvature="0"
       sodipodi:nodetypes="cc" />
    <path
       style="fill:none;stroke:#666666;stroke-width:1;stroke-linecap:butt;stroke-linejoin:miter;stroke-miterlimit:4;stroke-dasharray:8,1;stroke-dashoffset:0;stroke-opacity:1"
       d="m 133.94688,109.38647 0.12627,171.81215"
       id="path1071"
       inkscape:connector-curvature="0" />
    <path
       style="fill:none;stroke:#666666;stroke-width:1;stroke-linecap:butt;stroke-linejoin:miter;stroke-miterlimit:4;stroke-dasharray:8,1;stroke-dashoffset:0;stroke-opacity:1"
       d="m 96.927817,109.58349 37.138703,-0.0165"
       id="path932-0-8"
       inkscape:connector-curvature="0"
       sodipodi:nodetypes="cc" />
    <path
       style="fill:#666666;fill-opacity:1;stroke-width:0.07179993"
       d="m 133.33531,284.07425 c 0.48067,-1.56181 0.89884,-2.903 0.92928,-2.98043 0.0395,-0.10041 0.30807,0.6825 0.9368,2.73049 0.4848,1.57922 0.90537,2.94397 0.93459,3.03282 0.0515,0.15645 0.0384,0.16151 -0.4184,0.16188 l -0.47153,3.8e-4 0.003,3.01558 0.003,3.01561 -0.93338,8.2e-4 -0.93342,8.3e-4 -0.003,-3.01561 -0.003,-3.01558 -0.46669,4.3e-4 c -0.2567,6.5e-4 -0.46322,-0.0238 -0.45895,-0.0535 0.005,-0.0296 0.40103,-1.3317 0.8817,-2.89353 z"
       id="path906-6-0-7"
       inkscape:connector-curvature="0" />
    <path
       style="fill:#666666;fill-opacity:1;stroke-width:2.5017972;stroke-miterlimit:4;stroke-dasharray:none"
       d="m 134.92545,106.66533 c -0.47308,1.53714 -0.88466,2.85715 -0.91461,2.93335 -0.0389,0.0988 -0.30322,-0.67172 -0.922,-2.68736 -0.47716,-1.55428 -0.89109,-2.89749 -0.91985,-2.98491 -0.0507,-0.154 -0.0378,-0.15898 0.4118,-0.15933 l 0.46409,-3.9e-4 -0.002,-2.96795 -0.002,-2.967975 0.91866,-8.25e-4 0.91866,-8.13e-4 0.002,2.967983 0.002,2.96796 0.45932,-4.1e-4 c 0.25263,-6.6e-4 0.45589,0.0233 0.45169,0.0525 -0.005,0.0292 -0.39469,1.31067 -0.86776,2.84784 z"
       id="path906-6-0-71"
       inkscape:connector-curvature="0" />
  </g>
</svg>
